<svg xmlns="http://www.w3.org/2000/svg" xmlns:xlink="http://www.w3.org/1999/xlink" width="1080" zoomAndPan="magnify" viewBox="0 0 810 809.999993" height="1080" preserveAspectRatio="xMidYMid meet" version="1.0"><defs><filter x="0%" y="0%" width="100%" height="100%" id="d16a3b3e97"><feColorMatrix values="0 0 0 0 1 0 0 0 0 1 0 0 0 0 1 0 0 0 1 0" color-interpolation-filters="sRGB"/></filter><clipPath id="4ece90ad36"><path d="M 243.238281 250.363281 L 566.761719 250.363281 L 566.761719 559.363281 L 243.238281 559.363281 Z M 243.238281 250.363281 " clip-rule="nonzero"/></clipPath><mask id="a3cd3b3520"><g filter="url(#d16a3b3e97)"><rect x="-81" width="972" fill="#000000" y="-80.999999" height="971.999992" fill-opacity="0.25"/></g></mask><clipPath id="813182ab6f"><path d="M 0.238281 171 L 5 171 L 5 177 L 0.238281 177 Z M 0.238281 171 " clip-rule="nonzero"/></clipPath><clipPath id="ee1867d9e1"><path d="M 166 0.363281 L 176 0.363281 L 176 10 L 166 10 Z M 166 0.363281 " clip-rule="nonzero"/></clipPath><clipPath id="1b7cf80251"><path d="M 319 233 L 323.761719 233 L 323.761719 238 L 319 238 Z M 319 233 " clip-rule="nonzero"/></clipPath><clipPath id="293e9292ac"><path d="M 120 304 L 125 304 L 125 309.363281 L 120 309.363281 Z M 120 304 " clip-rule="nonzero"/></clipPath><clipPath id="085af68ca1"><rect x="0" width="324" y="0" height="310"/></clipPath></defs><rect x="-81" width="972" fill="#ffffff" y="-80.999999" height="971.999992" fill-opacity="1"/><rect x="-81" width="972" fill="#ffffff" y="-80.999999" height="971.999992" fill-opacity="1"/><g clip-path="url(#4ece90ad36)"><g mask="url(#a3cd3b3520)"><g transform="matrix(1, 0, 0, 1, 243, 250)"><g clip-path="url(#085af68ca1)"><path fill="#3cc3c0" d="M 258.136719 58.292969 C 260.085938 61.746094 264.695312 64.25 268.648438 63.128906 C 271.785156 62.238281 274.117188 59.382812 274.847656 56.269531 C 275.527344 53.382812 274.691406 50.492188 272.332031 49.164062 C 271.570312 45.765625 266.515625 45.539062 263.246094 46.605469 C 258.511719 48.152344 255.539062 53.699219 258.136719 58.292969 Z M 258.136719 58.292969 " fill-opacity="1" fill-rule="nonzero"/><path fill="#3cc3c0" d="M 1.847656 143.605469 C 1.476562 146.1875 2.886719 148.847656 4.855469 150.441406 C 6.953125 152.144531 9.671875 152.097656 11.5 150.4375 C 13.597656 149.734375 14.886719 147.703125 14.425781 145.15625 C 13.917969 142.351562 11.601562 139.679688 8.78125 139.058594 C 5.632812 138.367188 2.316406 140.347656 1.847656 143.605469 Z M 1.847656 143.605469 " fill-opacity="1" fill-rule="nonzero"/><path fill="#3cc3c0" d="M 207.28125 90.558594 C 205.996094 94.164062 208.703125 97.46875 211.832031 98.882812 C 214.796875 100.382812 218.066406 99.304688 219.289062 96.046875 C 220.363281 93.183594 219.382812 89.695312 216.675781 88.121094 C 213.5625 86.304688 208.628906 86.761719 207.28125 90.558594 Z M 207.28125 90.558594 " fill-opacity="1" fill-rule="nonzero"/><path fill="#3cc3c0" d="M 211.703125 63.683594 C 213.808594 64.921875 216.421875 64.65625 217.988281 62.699219 C 219.589844 60.707031 218.554688 57.976562 216.507812 56.792969 C 214.453125 55.605469 211.722656 55.976562 210.265625 57.929688 C 208.796875 59.902344 209.585938 62.558594 211.703125 63.683594 Z M 211.703125 63.683594 " fill-opacity="1" fill-rule="nonzero"/><path fill="#3cc3c0" d="M 244.371094 80.644531 C 242.054688 80.433594 240.003906 82.078125 239.84375 84.425781 C 239.699219 86.535156 240.980469 88.5 242.957031 89.214844 C 243.394531 89.433594 243.890625 89.511719 244.394531 89.367188 C 246.390625 88.777344 248.003906 87.140625 248.160156 84.988281 C 248.324219 82.6875 246.648438 80.851562 244.371094 80.644531 Z M 244.371094 80.644531 " fill-opacity="1" fill-rule="nonzero"/><path fill="#3cc3c0" d="M 204.890625 29.875 C 202.574219 29.664062 200.523438 31.308594 200.363281 33.65625 C 200.21875 35.761719 201.5 37.730469 203.476562 38.445312 C 203.914062 38.664062 204.410156 38.742188 204.914062 38.59375 C 206.910156 38.007812 208.523438 36.367188 208.679688 34.21875 C 208.84375 31.917969 207.167969 30.082031 204.890625 29.875 Z M 204.890625 29.875 " fill-opacity="1" fill-rule="nonzero"/><path fill="#3cc3c0" d="M 234.640625 49.53125 C 237.203125 51.234375 239.859375 47.261719 237.289062 45.554688 C 234.726562 43.855469 232.074219 47.828125 234.640625 49.53125 Z M 234.640625 49.53125 " fill-opacity="1" fill-rule="nonzero"/><path fill="#3cc3c0" d="M 232.246094 116.867188 C 229.683594 115.164062 227.027344 119.136719 229.597656 120.84375 C 232.160156 122.542969 234.8125 118.570312 232.246094 116.867188 Z M 232.246094 116.867188 " fill-opacity="1" fill-rule="nonzero"/><path fill="#3cc3c0" d="M 120.839844 24.519531 C 118.277344 22.816406 115.625 26.789062 118.191406 28.496094 C 120.753906 30.195312 123.410156 26.222656 120.839844 24.519531 Z M 120.839844 24.519531 " fill-opacity="1" fill-rule="nonzero"/><path fill="#3cc3c0" d="M 68.1875 76.105469 C 65.625 74.40625 62.96875 78.378906 65.539062 80.082031 C 68.101562 81.785156 70.753906 77.8125 68.1875 76.105469 Z M 68.1875 76.105469 " fill-opacity="1" fill-rule="nonzero"/><path fill="#3cc3c0" d="M 106.507812 50.175781 C 103.945312 48.472656 101.292969 52.449219 103.859375 54.152344 C 106.421875 55.855469 109.074219 51.878906 106.507812 50.175781 Z M 106.507812 50.175781 " fill-opacity="1" fill-rule="nonzero"/><path fill="#3cc3c0" d="M 180.210938 101.542969 C 182.773438 103.242188 185.425781 99.269531 182.859375 97.566406 C 180.296875 95.863281 177.644531 99.835938 180.210938 101.542969 Z M 180.210938 101.542969 " fill-opacity="1" fill-rule="nonzero"/><path fill="#3cc3c0" d="M 251.558594 143.269531 C 250.871094 145.320312 251.695312 147.671875 253.566406 148.773438 C 255.347656 149.824219 257.269531 149.332031 258.488281 148.019531 C 259.027344 147.960938 259.5625 147.746094 260.050781 147.324219 C 261.035156 146.46875 261.328125 144.832031 261.140625 143.597656 C 260.808594 141.433594 258.75 139.96875 256.660156 139.808594 C 254.367188 139.636719 252.277344 141.113281 251.558594 143.269531 Z M 251.558594 143.269531 " fill-opacity="1" fill-rule="nonzero"/><path fill="#3cc3c0" d="M 209.445312 148.042969 C 208.757812 150.09375 209.582031 152.445312 211.453125 153.546875 C 213.234375 154.597656 215.15625 154.105469 216.375 152.792969 C 216.914062 152.734375 217.449219 152.519531 217.9375 152.097656 C 218.921875 151.242188 219.214844 149.605469 219.023438 148.371094 C 218.695312 146.207031 216.636719 144.742188 214.546875 144.582031 C 212.253906 144.410156 210.164062 145.886719 209.445312 148.042969 Z M 209.445312 148.042969 " fill-opacity="1" fill-rule="nonzero"/><path fill="#3cc3c0" d="M 289.382812 136.664062 C 288.625 139.867188 290.273438 142.863281 292.894531 144.550781 C 293 144.644531 293.117188 144.730469 293.25 144.796875 C 293.429688 144.894531 293.617188 144.984375 293.800781 145.066406 C 293.808594 145.070312 293.816406 145.074219 293.824219 145.078125 C 293.832031 145.082031 293.84375 145.085938 293.851562 145.089844 C 295.289062 145.722656 296.839844 145.96875 298.335938 145.214844 C 299.664062 144.546875 300.589844 143.257812 300.996094 141.847656 C 301.917969 138.660156 300.464844 135.097656 297.453125 133.636719 C 294.308594 132.109375 290.277344 132.902344 289.382812 136.664062 Z M 289.382812 136.664062 " fill-opacity="1" fill-rule="nonzero"/><path fill="#3cc3c0" d="M 15.546875 192.316406 C 15.664062 192.640625 15.8125 192.957031 15.96875 193.265625 C 16.140625 193.59375 16.386719 193.886719 16.683594 194.117188 C 16.777344 194.359375 16.910156 194.589844 17.09375 194.78125 C 17.53125 195.242188 18.109375 195.578125 18.761719 195.601562 C 20.367188 195.648438 22.171875 195.40625 23.144531 193.960938 C 24.070312 192.582031 23.570312 190.894531 22.585938 189.71875 C 21.847656 188.839844 20.898438 188.234375 19.875 187.757812 C 18.683594 187.207031 17.171875 187.199219 16.140625 188.09375 C 15.253906 188.867188 15.039062 189.980469 15.1875 191.089844 C 15.242188 191.507812 15.40625 191.921875 15.546875 192.316406 Z M 15.546875 192.316406 " fill-opacity="1" fill-rule="nonzero"/><path fill="#3cc3c0" d="M 266.175781 95.921875 C 266.292969 96.25 266.4375 96.5625 266.597656 96.871094 C 266.765625 97.199219 267.015625 97.492188 267.3125 97.722656 C 267.40625 97.964844 267.539062 98.195312 267.722656 98.386719 C 268.160156 98.847656 268.738281 99.1875 269.390625 99.207031 C 270.996094 99.257812 272.800781 99.015625 273.773438 97.570312 C 274.699219 96.191406 274.199219 94.503906 273.214844 93.324219 C 272.476562 92.445312 271.527344 91.839844 270.503906 91.363281 C 269.3125 90.8125 267.800781 90.804688 266.769531 91.703125 C 265.882812 92.472656 265.667969 93.585938 265.816406 94.695312 C 265.867188 95.117188 266.035156 95.53125 266.175781 95.921875 Z M 266.175781 95.921875 " fill-opacity="1" fill-rule="nonzero"/><path fill="#3cc3c0" d="M 78.339844 51.277344 C 78.457031 51.605469 78.605469 51.917969 78.765625 52.226562 C 78.933594 52.554688 79.179688 52.847656 79.476562 53.078125 C 79.570312 53.320312 79.703125 53.550781 79.886719 53.742188 C 80.324219 54.203125 80.90625 54.539062 81.554688 54.5625 C 83.160156 54.613281 84.96875 54.371094 85.9375 52.925781 C 86.867188 51.542969 86.363281 49.859375 85.378906 48.679688 C 84.644531 47.800781 83.695312 47.195312 82.667969 46.71875 C 81.480469 46.167969 79.96875 46.160156 78.9375 47.054688 C 78.046875 47.828125 77.835938 48.941406 77.980469 50.050781 C 78.035156 50.46875 78.199219 50.882812 78.339844 51.277344 Z M 78.339844 51.277344 " fill-opacity="1" fill-rule="nonzero"/><g clip-path="url(#813182ab6f)"><path fill="#3cc3c0" d="M 3.933594 172.222656 C 1.371094 170.523438 -1.28125 174.496094 1.285156 176.199219 C 3.847656 177.902344 6.5 173.929688 3.933594 172.222656 Z M 3.933594 172.222656 " fill-opacity="1" fill-rule="nonzero"/></g><path fill="#3cc3c0" d="M 50.386719 241.554688 C 53.417969 243.753906 57.210938 242.417969 58.996094 239.335938 C 60.855469 236.132812 60.375 231.90625 57.207031 229.710938 C 53.988281 227.484375 49.449219 227.984375 47.390625 231.496094 C 45.25 235.15625 47.011719 239.410156 50.386719 241.554688 Z M 50.386719 241.554688 " fill-opacity="1" fill-rule="nonzero"/><path fill="#3cc3c0" d="M 16.507812 86.675781 C 19.535156 88.878906 23.332031 87.542969 25.117188 84.460938 C 26.976562 81.257812 26.496094 77.027344 23.328125 74.835938 C 20.105469 72.605469 15.566406 73.105469 13.511719 76.621094 C 11.367188 80.28125 13.128906 84.535156 16.507812 86.675781 Z M 16.507812 86.675781 " fill-opacity="1" fill-rule="nonzero"/><path fill="#3cc3c0" d="M 302.496094 198.105469 C 305.527344 200.304688 309.320312 198.96875 311.105469 195.890625 C 312.964844 192.683594 312.484375 188.457031 309.316406 186.261719 C 306.097656 184.035156 301.558594 184.535156 299.5 188.050781 C 297.359375 191.707031 299.121094 195.960938 302.496094 198.105469 Z M 302.496094 198.105469 " fill-opacity="1" fill-rule="nonzero"/><path fill="#3cc3c0" d="M 11.402344 234.363281 C 11.796875 237.210938 14.582031 238.902344 17.304688 238.496094 C 18.128906 238.371094 18.769531 237.746094 19.054688 236.988281 C 20.519531 236.117188 21.414062 234.535156 20.929688 232.679688 C 20.390625 230.601562 18.414062 229.019531 16.257812 228.964844 C 13.390625 228.898438 11.011719 231.53125 11.402344 234.363281 Z M 11.402344 234.363281 " fill-opacity="1" fill-rule="nonzero"/><g clip-path="url(#ee1867d9e1)"><path fill="#3cc3c0" d="M 166.042969 5.761719 C 166.433594 8.609375 169.222656 10.300781 171.941406 9.894531 C 172.765625 9.769531 173.40625 9.144531 173.691406 8.386719 C 175.160156 7.519531 176.054688 5.933594 175.570312 4.078125 C 175.027344 2 173.050781 0.417969 170.894531 0.363281 C 168.03125 0.296875 165.652344 2.929688 166.042969 5.761719 Z M 166.042969 5.761719 " fill-opacity="1" fill-rule="nonzero"/></g><path fill="#3cc3c0" d="M 40.90625 207.847656 C 40.832031 208.226562 40.746094 208.605469 40.730469 208.988281 C 40.710938 209.375 40.75 209.765625 40.785156 210.148438 C 40.804688 210.339844 40.832031 210.527344 40.878906 210.714844 C 41.066406 211.480469 41.351562 212.09375 41.824219 212.722656 C 41.875 212.785156 41.925781 212.84375 41.980469 212.898438 C 42.179688 213.101562 42.398438 213.296875 42.628906 213.460938 C 42.859375 213.625 43.136719 213.738281 43.386719 213.847656 C 43.460938 213.882812 43.53125 213.910156 43.609375 213.929688 C 44.585938 214.195312 45.511719 214.074219 46.4375 213.683594 C 46.851562 213.507812 47.238281 213.230469 47.601562 212.976562 C 47.875 212.785156 48.125 212.566406 48.363281 212.335938 C 48.511719 212.191406 48.652344 212.046875 48.789062 211.894531 C 49.046875 211.6875 49.234375 211.429688 49.351562 211.125 C 49.515625 210.855469 49.601562 210.554688 49.609375 210.230469 C 49.640625 209.675781 49.441406 209 49.066406 208.570312 C 49.027344 208.464844 48.984375 208.359375 48.921875 208.265625 C 48.453125 207.527344 47.96875 206.757812 47.316406 206.167969 C 47.007812 205.882812 46.675781 205.558594 46.296875 205.351562 C 45.703125 205.03125 45.328125 204.886719 44.664062 204.796875 C 43.785156 204.679688 42.902344 205.027344 42.226562 205.566406 C 41.667969 206.011719 41.292969 206.6875 41.046875 207.34375 C 40.984375 207.507812 40.941406 207.675781 40.90625 207.847656 Z M 40.90625 207.847656 " fill-opacity="1" fill-rule="nonzero"/><path fill="#3cc3c0" d="M 77.871094 185.832031 C 77.796875 186.207031 77.714844 186.585938 77.695312 186.972656 C 77.679688 187.359375 77.714844 187.75 77.75 188.132812 C 77.769531 188.324219 77.800781 188.511719 77.84375 188.699219 C 78.035156 189.464844 78.316406 190.078125 78.792969 190.703125 C 78.839844 190.765625 78.890625 190.824219 78.945312 190.882812 C 79.144531 191.082031 79.363281 191.28125 79.597656 191.445312 C 79.824219 191.609375 80.101562 191.722656 80.351562 191.832031 C 80.425781 191.863281 80.496094 191.894531 80.574219 191.914062 C 81.554688 192.175781 82.476562 192.058594 83.402344 191.667969 C 83.820312 191.492188 84.203125 191.214844 84.566406 190.960938 C 84.839844 190.769531 85.09375 190.550781 85.332031 190.316406 C 85.476562 190.175781 85.617188 190.027344 85.753906 189.878906 C 86.015625 189.671875 86.203125 189.414062 86.320312 189.109375 C 86.484375 188.835938 86.570312 188.539062 86.574219 188.214844 C 86.609375 187.660156 86.410156 186.984375 86.03125 186.554688 C 85.996094 186.449219 85.949219 186.34375 85.890625 186.25 C 85.417969 185.511719 84.9375 184.742188 84.285156 184.148438 C 83.972656 183.867188 83.644531 183.539062 83.265625 183.335938 C 82.667969 183.015625 82.292969 182.867188 81.628906 182.78125 C 80.75 182.664062 79.871094 183.011719 79.195312 183.550781 C 78.636719 183.996094 78.257812 184.671875 78.011719 185.324219 C 77.949219 185.488281 77.90625 185.660156 77.871094 185.832031 Z M 77.871094 185.832031 " fill-opacity="1" fill-rule="nonzero"/><path fill="#3cc3c0" d="M 91.34375 125.007812 C 91.265625 125.382812 91.183594 125.761719 91.164062 126.148438 C 91.148438 126.535156 91.1875 126.925781 91.222656 127.308594 C 91.238281 127.5 91.269531 127.6875 91.3125 127.875 C 91.503906 128.636719 91.789062 129.253906 92.261719 129.878906 C 92.308594 129.941406 92.359375 130 92.414062 130.054688 C 92.617188 130.257812 92.835938 130.453125 93.066406 130.621094 C 93.296875 130.785156 93.570312 130.894531 93.824219 131.007812 C 93.894531 131.039062 93.96875 131.066406 94.046875 131.089844 C 95.023438 131.351562 95.949219 131.234375 96.871094 130.84375 C 97.289062 130.667969 97.671875 130.390625 98.035156 130.132812 C 98.308594 129.941406 98.5625 129.722656 98.800781 129.492188 C 98.949219 129.351562 99.089844 129.203125 99.226562 129.054688 C 99.484375 128.84375 99.671875 128.589844 99.789062 128.285156 C 99.953125 128.011719 100.039062 127.714844 100.046875 127.386719 C 100.078125 126.835938 99.878906 126.15625 99.5 125.730469 C 99.464844 125.621094 99.421875 125.519531 99.359375 125.421875 C 98.890625 124.6875 98.40625 123.917969 97.753906 123.324219 C 97.441406 123.042969 97.113281 122.714844 96.734375 122.511719 C 96.140625 122.191406 95.761719 122.042969 95.097656 121.953125 C 94.222656 121.835938 93.339844 122.183594 92.664062 122.726562 C 92.105469 123.171875 91.726562 123.84375 91.480469 124.5 C 91.417969 124.664062 91.375 124.832031 91.34375 125.007812 Z M 91.34375 125.007812 " fill-opacity="1" fill-rule="nonzero"/><path fill="#3cc3c0" d="M 174.5625 42.195312 C 174.488281 42.574219 174.402344 42.953125 174.386719 43.339844 C 174.371094 43.722656 174.40625 44.117188 174.441406 44.496094 C 174.460938 44.6875 174.488281 44.878906 174.535156 45.0625 C 174.722656 45.828125 175.011719 46.445312 175.484375 47.070312 C 175.53125 47.132812 175.582031 47.191406 175.636719 47.246094 C 175.835938 47.449219 176.054688 47.644531 176.285156 47.808594 C 176.515625 47.972656 176.792969 48.085938 177.042969 48.199219 C 177.117188 48.230469 177.1875 48.257812 177.265625 48.277344 C 178.242188 48.542969 179.167969 48.421875 180.09375 48.035156 C 180.507812 47.859375 180.894531 47.578125 181.257812 47.324219 C 181.53125 47.132812 181.78125 46.914062 182.023438 46.683594 C 182.167969 46.539062 182.308594 46.394531 182.445312 46.242188 C 182.707031 46.035156 182.894531 45.777344 183.011719 45.476562 C 183.175781 45.203125 183.261719 44.902344 183.265625 44.578125 C 183.296875 44.023438 183.097656 43.347656 182.722656 42.921875 C 182.6875 42.8125 182.640625 42.707031 182.582031 42.613281 C 182.109375 41.878906 181.625 41.109375 180.972656 40.515625 C 180.664062 40.230469 180.332031 39.90625 179.953125 39.703125 C 179.359375 39.382812 178.984375 39.234375 178.320312 39.144531 C 177.441406 39.027344 176.558594 39.375 175.882812 39.914062 C 175.328125 40.359375 174.949219 41.035156 174.703125 41.691406 C 174.640625 41.855469 174.597656 42.023438 174.5625 42.195312 Z M 174.5625 42.195312 " fill-opacity="1" fill-rule="nonzero"/><path fill="#3cc3c0" d="M 38.589844 167.660156 C 39.441406 168.324219 40.394531 168.582031 41.402344 168.632812 C 42.09375 169.121094 43.015625 169.160156 43.878906 168.859375 C 46.480469 167.953125 47.925781 165.003906 47.289062 162.367188 C 46.601562 159.53125 43.890625 157.636719 40.964844 158.292969 C 38.191406 158.910156 36.460938 161.578125 36.761719 164.351562 C 36.902344 165.652344 37.546875 166.851562 38.589844 167.660156 Z M 38.589844 167.660156 " fill-opacity="1" fill-rule="nonzero"/><path fill="#3cc3c0" d="M 41.96875 186.832031 C 44.53125 188.535156 47.183594 184.5625 44.617188 182.855469 C 42.054688 181.15625 39.402344 185.128906 41.96875 186.832031 Z M 41.96875 186.832031 " fill-opacity="1" fill-rule="nonzero"/><path fill="#3cc3c0" d="M 96.441406 96.863281 C 99.003906 98.5625 101.65625 94.589844 99.089844 92.886719 C 96.523438 91.183594 93.871094 95.15625 96.441406 96.863281 Z M 96.441406 96.863281 " fill-opacity="1" fill-rule="nonzero"/><path fill="#3cc3c0" d="M 42.757812 72.289062 C 45.324219 73.988281 47.976562 70.015625 45.410156 68.3125 C 42.84375 66.609375 40.191406 70.582031 42.757812 72.289062 Z M 42.757812 72.289062 " fill-opacity="1" fill-rule="nonzero"/><path fill="#3cc3c0" d="M 247.828125 26.371094 C 250.390625 28.070312 253.046875 24.097656 250.476562 22.394531 C 247.914062 20.691406 245.261719 24.664062 247.828125 26.371094 Z M 247.828125 26.371094 " fill-opacity="1" fill-rule="nonzero"/><path fill="#3cc3c0" d="M 147.960938 39.652344 C 150.523438 41.355469 153.175781 37.382812 150.609375 35.675781 C 148.046875 33.976562 145.394531 37.949219 147.960938 39.652344 Z M 147.960938 39.652344 " fill-opacity="1" fill-rule="nonzero"/><path fill="#3cc3c0" d="M 38.234375 138.113281 C 40.800781 139.816406 43.453125 135.84375 40.886719 134.136719 C 38.324219 132.4375 35.667969 136.410156 38.234375 138.113281 Z M 38.234375 138.113281 " fill-opacity="1" fill-rule="nonzero"/><path fill="#3cc3c0" d="M 19.488281 112.664062 C 22.050781 114.363281 24.703125 110.390625 22.136719 108.6875 C 19.574219 106.984375 16.921875 110.957031 19.488281 112.664062 Z M 19.488281 112.664062 " fill-opacity="1" fill-rule="nonzero"/><path fill="#3cc3c0" d="M 299.945312 91.429688 C 302.507812 93.132812 305.164062 89.15625 302.59375 87.453125 C 300.03125 85.75 297.378906 89.726562 299.945312 91.429688 Z M 299.945312 91.429688 " fill-opacity="1" fill-rule="nonzero"/><path fill="#3cc3c0" d="M 267.367188 118.464844 C 269.929688 120.164062 272.582031 116.191406 270.015625 114.488281 C 267.453125 112.785156 264.800781 116.757812 267.367188 118.464844 Z M 267.367188 118.464844 " fill-opacity="1" fill-rule="nonzero"/><path fill="#3cc3c0" d="M 47.074219 268.253906 C 49.636719 269.957031 52.289062 265.980469 49.722656 264.277344 C 47.160156 262.578125 44.507812 266.550781 47.074219 268.253906 Z M 47.074219 268.253906 " fill-opacity="1" fill-rule="nonzero"/><g clip-path="url(#1b7cf80251)"><path fill="#3cc3c0" d="M 320.066406 237.539062 C 322.628906 239.238281 325.28125 235.265625 322.714844 233.5625 C 320.152344 231.859375 317.5 235.832031 320.066406 237.539062 Z M 320.066406 237.539062 " fill-opacity="1" fill-rule="nonzero"/></g><path fill="#3cc3c0" d="M 126.238281 248.652344 C 126.988281 248.769531 127.570312 248.566406 127.972656 248.191406 C 131.15625 246.785156 133.4375 243.464844 133.054688 239.914062 C 132.660156 236.207031 129.316406 233.828125 125.6875 233.886719 C 121.902344 233.953125 117.878906 237.054688 117.449219 240.929688 C 116.882812 246.027344 122.164062 248 126.238281 248.652344 Z M 126.238281 248.652344 " fill-opacity="1" fill-rule="nonzero"/><path fill="#3cc3c0" d="M 176.617188 76.09375 C 177.367188 76.214844 177.945312 76.011719 178.347656 75.632812 C 181.535156 74.226562 183.8125 70.90625 183.433594 67.359375 C 183.035156 63.648438 179.695312 61.269531 176.066406 61.332031 C 172.277344 61.394531 168.257812 64.5 167.828125 68.375 C 167.261719 73.472656 172.542969 75.445312 176.617188 76.09375 Z M 176.617188 76.09375 " fill-opacity="1" fill-rule="nonzero"/><path fill="#3cc3c0" d="M 256.269531 267.445312 C 260.054688 268.261719 263.660156 266.730469 265.082031 263.574219 C 266.578125 261.855469 267.171875 259.566406 266.128906 257.082031 C 264.777344 253.863281 261.234375 251.535156 257.773438 251.367188 C 253.441406 251.160156 249.667969 254.769531 249.238281 259.019531 C 248.804688 263.292969 252.339844 266.59375 256.269531 267.445312 Z M 256.269531 267.445312 " fill-opacity="1" fill-rule="nonzero"/><path fill="#3cc3c0" d="M 293.578125 234.308594 C 297.363281 235.128906 300.964844 233.597656 302.390625 230.441406 C 303.882812 228.71875 304.476562 226.433594 303.433594 223.945312 C 302.082031 220.726562 298.539062 218.402344 295.078125 218.234375 C 290.746094 218.023438 286.972656 221.636719 286.542969 225.886719 C 286.113281 230.15625 289.648438 233.460938 293.578125 234.308594 Z M 293.578125 234.308594 " fill-opacity="1" fill-rule="nonzero"/><path fill="#3cc3c0" d="M 133.894531 173.882812 C 139.535156 180.6875 149.636719 176.894531 152.53125 169.527344 C 154.152344 165.402344 152.769531 161.066406 149 158.710938 C 144.632812 155.847656 138.890625 153.992188 134.761719 158.3125 C 131.046875 162.191406 130.382812 169.648438 133.894531 173.882812 Z M 133.894531 173.882812 " fill-opacity="1" fill-rule="nonzero"/><path fill="#3cc3c0" d="M 127.429688 80.167969 C 133.070312 86.976562 143.171875 83.183594 146.066406 75.8125 C 147.6875 71.6875 146.304688 67.351562 142.535156 65 C 138.167969 62.132812 132.425781 60.277344 128.292969 64.597656 C 124.582031 68.476562 123.917969 75.933594 127.429688 80.167969 Z M 127.429688 80.167969 " fill-opacity="1" fill-rule="nonzero"/><path fill="#3cc3c0" d="M 108.359375 167.0625 C 110.585938 168.296875 112.964844 167.746094 114.382812 166.023438 C 114.515625 166.015625 114.65625 166.007812 114.796875 165.996094 C 115.660156 165.925781 116.304688 165.132812 116.597656 164.402344 C 117.804688 161.402344 116.292969 158.195312 113.300781 157.050781 C 110.316406 155.910156 106.835938 157.257812 105.628906 160.269531 C 104.585938 162.863281 106.007812 165.761719 108.359375 167.0625 Z M 108.359375 167.0625 " fill-opacity="1" fill-rule="nonzero"/><path fill="#3cc3c0" d="M 113.957031 212.035156 C 111.273438 210.390625 107.964844 210.953125 106.253906 213.699219 C 104.640625 216.28125 105.222656 219.730469 107.820312 221.421875 C 110.476562 223.152344 113.839844 222.15625 115.535156 219.605469 C 117.222656 217.0625 116.652344 213.621094 113.957031 212.035156 Z M 113.957031 212.035156 " fill-opacity="1" fill-rule="nonzero"/><path fill="#3cc3c0" d="M 261.082031 188.972656 C 258.398438 187.328125 255.089844 187.894531 253.378906 190.636719 C 251.765625 193.21875 252.347656 196.667969 254.945312 198.363281 C 257.601562 200.089844 260.964844 199.09375 262.660156 196.546875 C 264.347656 194 263.773438 190.558594 261.082031 188.972656 Z M 261.082031 188.972656 " fill-opacity="1" fill-rule="nonzero"/><path fill="#3cc3c0" d="M 135.058594 228.886719 C 137.621094 230.589844 140.273438 226.617188 137.707031 224.910156 C 135.144531 223.210938 132.492188 227.183594 135.058594 228.886719 Z M 135.058594 228.886719 " fill-opacity="1" fill-rule="nonzero"/><path fill="#3cc3c0" d="M 130.351562 119.5625 C 132.914062 121.265625 135.566406 117.289062 133 115.585938 C 130.4375 113.886719 127.78125 117.859375 130.351562 119.5625 Z M 130.351562 119.5625 " fill-opacity="1" fill-rule="nonzero"/><path fill="#3cc3c0" d="M 132.769531 273.609375 C 135.332031 275.308594 137.984375 271.335938 135.417969 269.632812 C 132.855469 267.929688 130.203125 271.90625 132.769531 273.609375 Z M 132.769531 273.609375 " fill-opacity="1" fill-rule="nonzero"/><path fill="#3cc3c0" d="M 86.175781 245.4375 C 88.738281 247.136719 91.390625 243.164062 88.824219 241.460938 C 86.257812 239.757812 83.605469 243.734375 86.175781 245.4375 Z M 86.175781 245.4375 " fill-opacity="1" fill-rule="nonzero"/><path fill="#3cc3c0" d="M 64.839844 138.269531 C 67.40625 139.96875 70.058594 135.996094 67.492188 134.292969 C 64.925781 132.589844 62.273438 136.5625 64.839844 138.269531 Z M 64.839844 138.269531 " fill-opacity="1" fill-rule="nonzero"/><path fill="#3cc3c0" d="M 190.449219 134.636719 C 193.011719 136.335938 195.667969 132.363281 193.097656 130.660156 C 190.535156 128.957031 187.882812 132.933594 190.449219 134.636719 Z M 190.449219 134.636719 " fill-opacity="1" fill-rule="nonzero"/><path fill="#3cc3c0" d="M 211.460938 230.621094 C 211.878906 233.183594 214.117188 234.570312 216.441406 235.15625 C 216.683594 235.253906 216.941406 235.308594 217.207031 235.316406 C 217.582031 235.371094 217.957031 235.292969 218.296875 235.117188 C 220.621094 234.347656 222.144531 232.121094 221.550781 229.601562 C 220.933594 226.992188 218.597656 225.21875 215.910156 225.484375 C 213.304688 225.742188 211.007812 227.851562 211.460938 230.621094 Z M 211.460938 230.621094 " fill-opacity="1" fill-rule="nonzero"/><path fill="#3cc3c0" d="M 183.929688 174.992188 C 184.910156 177.449219 187.402344 178.652344 189.890625 178.992188 C 190.140625 179.0625 190.414062 179.089844 190.714844 179.0625 C 191.105469 179.058594 191.445312 178.96875 191.734375 178.816406 C 193.945312 178.046875 195.335938 176.089844 195.15625 173.648438 C 194.988281 171.34375 193.554688 169.214844 191.464844 168.210938 C 189.445312 167.234375 186.726562 167.515625 185.09375 169.132812 C 183.523438 170.6875 183.121094 172.957031 183.929688 174.992188 Z M 183.929688 174.992188 " fill-opacity="1" fill-rule="nonzero"/><path fill="#3cc3c0" d="M 160.695312 136.085938 C 163.257812 137.789062 165.910156 133.8125 163.34375 132.109375 C 160.777344 130.410156 158.125 134.382812 160.695312 136.085938 Z M 160.695312 136.085938 " fill-opacity="1" fill-rule="nonzero"/><path fill="#3cc3c0" d="M 226.519531 209.652344 C 229.082031 211.355469 231.734375 207.378906 229.167969 205.675781 C 226.605469 203.972656 223.953125 207.949219 226.519531 209.652344 Z M 226.519531 209.652344 " fill-opacity="1" fill-rule="nonzero"/><path fill="#3cc3c0" d="M 257.082031 237.648438 C 257.628906 237.976562 258.246094 238.128906 258.878906 238.003906 L 259.992188 237.777344 C 260.59375 237.65625 261.171875 237.269531 261.511719 236.761719 C 261.835938 236.273438 262.007812 235.546875 261.867188 234.964844 C 261.71875 234.367188 261.390625 233.777344 260.847656 233.449219 C 260.300781 233.125 259.683594 232.96875 259.050781 233.097656 C 258.679688 233.171875 258.308594 233.246094 257.933594 233.320312 C 257.335938 233.441406 256.753906 233.828125 256.417969 234.339844 C 256.089844 234.828125 255.921875 235.554688 256.0625 236.132812 C 256.210938 236.734375 256.535156 237.320312 257.082031 237.648438 Z M 257.082031 237.648438 " fill-opacity="1" fill-rule="nonzero"/><path fill="#3cc3c0" d="M 227.914062 258.261719 C 230.476562 259.964844 233.128906 255.988281 230.5625 254.285156 C 228 252.585938 225.34375 256.558594 227.914062 258.261719 Z M 227.914062 258.261719 " fill-opacity="1" fill-rule="nonzero"/><path fill="#3cc3c0" d="M 191.882812 223.261719 C 194.445312 224.964844 197.097656 220.992188 194.53125 219.285156 C 191.96875 217.585938 189.3125 221.558594 191.882812 223.261719 Z M 191.882812 223.261719 " fill-opacity="1" fill-rule="nonzero"/><path fill="#3cc3c0" d="M 287.875 273.609375 C 290.4375 275.308594 293.089844 271.335938 290.523438 269.632812 C 287.960938 267.929688 285.304688 271.90625 287.875 273.609375 Z M 287.875 273.609375 " fill-opacity="1" fill-rule="nonzero"/><path fill="#3cc3c0" d="M 247.828125 291.847656 C 250.390625 293.550781 253.046875 289.578125 250.476562 287.871094 C 247.914062 286.171875 245.261719 290.144531 247.828125 291.847656 Z M 247.828125 291.847656 " fill-opacity="1" fill-rule="nonzero"/><path fill="#3cc3c0" d="M 62.261719 28.773438 C 64.824219 30.472656 67.476562 26.5 64.910156 24.796875 C 62.347656 23.09375 59.691406 27.066406 62.261719 28.773438 Z M 62.261719 28.773438 " fill-opacity="1" fill-rule="nonzero"/><path fill="#3cc3c0" d="M 176.503906 283.730469 C 173.582031 285.863281 173.027344 289.78125 174.765625 292.851562 C 176.421875 295.78125 179.53125 298.015625 183.019531 297.269531 C 185.757812 296.679688 187.988281 294.492188 189.054688 291.972656 C 190.285156 289.058594 189.472656 286.167969 186.910156 284.582031 C 186.875 284.546875 186.839844 284.511719 186.800781 284.480469 C 183.898438 282.089844 179.667969 281.425781 176.503906 283.730469 Z M 176.503906 283.730469 " fill-opacity="1" fill-rule="nonzero"/><path fill="#3cc3c0" d="M 159.308594 210.183594 C 156.386719 212.3125 155.832031 216.230469 157.566406 219.304688 C 159.222656 222.234375 162.335938 224.46875 165.824219 223.71875 C 168.558594 223.132812 170.792969 220.945312 171.859375 218.421875 C 173.089844 215.507812 172.277344 212.621094 169.714844 211.03125 C 169.679688 211 169.644531 210.964844 169.605469 210.933594 C 166.699219 208.542969 162.472656 207.878906 159.308594 210.183594 Z M 159.308594 210.183594 " fill-opacity="1" fill-rule="nonzero"/><path fill="#3cc3c0" d="M 168.539062 274.234375 C 171.101562 275.9375 173.753906 271.964844 171.1875 270.257812 C 168.625 268.558594 165.96875 272.53125 168.539062 274.234375 Z M 168.539062 274.234375 " fill-opacity="1" fill-rule="nonzero"/><path fill="#3cc3c0" d="M 193.898438 261.746094 C 196.460938 263.449219 199.113281 259.476562 196.546875 257.769531 C 193.984375 256.070312 191.332031 260.042969 193.898438 261.746094 Z M 193.898438 261.746094 " fill-opacity="1" fill-rule="nonzero"/><path fill="#3cc3c0" d="M 221.75 182.316406 C 224.3125 184.019531 226.964844 180.046875 224.398438 178.34375 C 221.835938 176.640625 219.183594 180.613281 221.75 182.316406 Z M 221.75 182.316406 " fill-opacity="1" fill-rule="nonzero"/><path fill="#3cc3c0" d="M 215.03125 299.324219 C 217.597656 301.027344 220.25 297.050781 217.679688 295.347656 C 215.117188 293.644531 212.464844 297.621094 215.03125 299.324219 Z M 215.03125 299.324219 " fill-opacity="1" fill-rule="nonzero"/><path fill="#3cc3c0" d="M 141.820312 298.316406 C 142.03125 300.171875 143.28125 301.945312 145.019531 302.660156 C 145.570312 302.890625 146.175781 302.953125 146.765625 302.875 C 148.164062 303.164062 149.601562 302.941406 150.664062 301.882812 C 151.789062 300.765625 152.152344 299.191406 151.988281 297.652344 C 151.664062 294.5625 148.914062 292.585938 145.878906 293.136719 C 143.308594 293.601562 141.519531 295.675781 141.820312 298.316406 Z M 141.820312 298.316406 " fill-opacity="1" fill-rule="nonzero"/><path fill="#3cc3c0" d="M 97.234375 288.785156 C 93.910156 286.296875 88.707031 286.707031 86.542969 290.46875 C 84.261719 294.433594 86.464844 299.1875 90.234375 301.242188 C 93.308594 303.335938 96.859375 301.199219 98.527344 298.386719 C 100.382812 295.257812 100.34375 291.109375 97.234375 288.785156 Z M 97.234375 288.785156 " fill-opacity="1" fill-rule="nonzero"/><g clip-path="url(#293e9292ac)"><path fill="#3cc3c0" d="M 121.109375 309.21875 C 123.671875 310.921875 126.324219 306.945312 123.757812 305.242188 C 121.195312 303.539062 118.542969 307.515625 121.109375 309.21875 Z M 121.109375 309.21875 " fill-opacity="1" fill-rule="nonzero"/></g><path fill="#3cc3c0" d="M 140.699219 109.230469 C 143.261719 110.929688 145.917969 106.957031 143.347656 105.253906 C 140.785156 103.550781 138.132812 107.523438 140.699219 109.230469 Z M 140.699219 109.230469 " fill-opacity="1" fill-rule="nonzero"/><path fill="#3cc3c0" d="M 71.738281 269.863281 C 70.898438 269.230469 69.84375 268.75 68.816406 268.523438 C 67.242188 268.183594 65.5625 268.230469 64.421875 269.527344 C 62.960938 271.191406 63.660156 273.480469 64.644531 275.191406 C 64.964844 275.753906 65.414062 276.207031 66.046875 276.414062 C 66.59375 276.59375 67.328125 276.566406 67.84375 276.289062 C 67.863281 276.277344 67.882812 276.265625 67.902344 276.253906 C 68.144531 276.363281 68.402344 276.425781 68.660156 276.414062 C 70.554688 276.316406 72.699219 275.976562 73.472656 273.964844 C 74.101562 272.324219 72.980469 270.796875 71.738281 269.863281 Z M 71.738281 269.863281 " fill-opacity="1" fill-rule="nonzero"/><path fill="#3cc3c0" d="M 47.679688 111.828125 C 50.613281 111.847656 53.390625 110.398438 54.339844 107.449219 C 55.148438 104.933594 54.453125 101.902344 52.554688 100.042969 C 50.09375 97.632812 46.316406 97.625 43.5 99.445312 C 40.796875 101.191406 39.394531 104.5625 40.101562 107.71875 C 40.917969 111.375 44.324219 113.164062 47.679688 111.828125 Z M 47.679688 111.828125 " fill-opacity="1" fill-rule="nonzero"/></g></g></g></g></svg>